<svg xmlns="http://www.w3.org/2000/svg" version="1.1" xmlns:xlink="http://www.w3.org/1999/xlink" xmlns:svgjs="http://svgjs.dev/svgjs" width="1440" height="560" preserveAspectRatio="none" viewBox="0 0 1440 560"><g mask="url(&quot;#SvgjsMask1019&quot;)" fill="none"><path d="M106.46 99.69L171.42 137.19L171.42 212.19L106.46 249.69L41.51 212.19L41.51 137.19zM106.46 324.69L171.42 362.19L171.42 437.19L106.46 474.69L41.51 437.19L41.51 362.19zM106.46 549.69L171.42 587.19L171.42 662.19L106.46 699.69L41.51 662.19L41.51 587.19zM236.37 99.69L301.32 137.19L301.32 212.19L236.37 249.69L171.42 212.19L171.42 137.19zM171.42 437.19L236.37 474.69L236.37 549.69L171.42 587.19L106.46 549.69L106.46 474.69zM301.32 212.19L366.28 249.69L366.28 324.69L301.32 362.19L236.37 324.69L236.37 249.69zM301.32 437.19L366.28 474.69L366.28 549.69L301.32 587.19L236.37 549.69L236.37 474.69zM496.19 99.69L561.14 137.19L561.14 212.19L496.19 249.69L431.23 212.19L431.23 137.19zM431.23 437.19L496.19 474.69L496.19 549.69L431.23 587.19L366.28 549.69L366.28 474.69zM626.09 99.69L691.05 137.19L691.05 212.19L626.09 249.69L561.14 212.19L561.14 137.19zM561.14 212.19L626.09 249.69L626.09 324.69L561.14 362.19L496.19 324.69L496.19 249.69zM561.14 437.19L626.09 474.69L626.09 549.69L561.14 587.19L496.19 549.69L496.19 474.69zM691.05 437.19L756 474.69L756 549.69L691.05 587.19L626.09 549.69L626.09 474.69zM756 549.69L820.96 587.19L820.96 662.19L756 699.69L691.05 662.19L691.05 587.19zM885.91 99.69L950.86 137.19L950.86 212.19L885.91 249.69L820.95 212.19L820.95 137.19zM885.91 324.69L950.86 362.19L950.86 437.19L885.91 474.69L820.95 437.19L820.95 362.19zM820.95 437.19L885.91 474.69L885.91 549.69L820.95 587.19L756 549.69L756 474.69zM1015.82 99.69L1080.77 137.19L1080.77 212.19L1015.82 249.69L950.86 212.19L950.86 137.19zM1015.82 324.69L1080.77 362.19L1080.77 437.19L1015.82 474.69L950.86 437.19L950.86 362.19zM1080.77 -12.81L1145.72 24.69L1145.72 99.69L1080.77 137.19L1015.82 99.69L1015.82 24.69zM1145.72 549.69L1210.68 587.19L1210.68 662.19L1145.72 699.69L1080.77 662.19L1080.77 587.19zM1210.68 212.19L1275.63 249.69L1275.63 324.69L1210.68 362.19L1145.72 324.69L1145.72 249.69zM1340.59 -12.81L1405.54 24.69L1405.54 99.69L1340.59 137.19L1275.63 99.69L1275.63 24.69zM1405.54 549.69L1470.49 587.19L1470.49 662.19L1405.54 699.69L1340.59 662.19L1340.59 587.19zM1535.45 324.69L1600.4 362.19L1600.4 437.19L1535.45 474.69L1470.49 437.19L1470.49 362.19z" stroke="rgba(246, 150, 83, 0.47)" stroke-width="2"></path><path d="M98.96 99.69 a7.5 7.5 0 1 0 15 0 a7.5 7.5 0 1 0 -15 0zM163.92 137.19 a7.5 7.5 0 1 0 15 0 a7.5 7.5 0 1 0 -15 0zM163.92 212.19 a7.5 7.5 0 1 0 15 0 a7.5 7.5 0 1 0 -15 0zM98.96 249.69 a7.5 7.5 0 1 0 15 0 a7.5 7.5 0 1 0 -15 0zM34.01 212.19 a7.5 7.5 0 1 0 15 0 a7.5 7.5 0 1 0 -15 0zM34.01 137.19 a7.5 7.5 0 1 0 15 0 a7.5 7.5 0 1 0 -15 0zM98.96 324.69 a7.5 7.5 0 1 0 15 0 a7.5 7.5 0 1 0 -15 0zM163.92 362.19 a7.5 7.5 0 1 0 15 0 a7.5 7.5 0 1 0 -15 0zM163.92 437.19 a7.5 7.5 0 1 0 15 0 a7.5 7.5 0 1 0 -15 0zM98.96 474.69 a7.5 7.5 0 1 0 15 0 a7.5 7.5 0 1 0 -15 0zM34.01 437.19 a7.5 7.5 0 1 0 15 0 a7.5 7.5 0 1 0 -15 0zM34.01 362.19 a7.5 7.5 0 1 0 15 0 a7.5 7.5 0 1 0 -15 0zM98.96 549.69 a7.5 7.5 0 1 0 15 0 a7.5 7.5 0 1 0 -15 0zM163.92 587.19 a7.5 7.5 0 1 0 15 0 a7.5 7.5 0 1 0 -15 0zM163.92 662.19 a7.5 7.5 0 1 0 15 0 a7.5 7.5 0 1 0 -15 0zM98.96 699.69 a7.5 7.5 0 1 0 15 0 a7.5 7.5 0 1 0 -15 0zM34.01 662.19 a7.5 7.5 0 1 0 15 0 a7.5 7.5 0 1 0 -15 0zM34.01 587.19 a7.5 7.5 0 1 0 15 0 a7.5 7.5 0 1 0 -15 0zM228.87 99.69 a7.5 7.5 0 1 0 15 0 a7.5 7.5 0 1 0 -15 0zM293.82 137.19 a7.5 7.5 0 1 0 15 0 a7.5 7.5 0 1 0 -15 0zM293.82 212.19 a7.5 7.5 0 1 0 15 0 a7.5 7.5 0 1 0 -15 0zM228.87 249.69 a7.5 7.5 0 1 0 15 0 a7.5 7.5 0 1 0 -15 0zM228.87 474.69 a7.5 7.5 0 1 0 15 0 a7.5 7.5 0 1 0 -15 0zM228.87 549.69 a7.5 7.5 0 1 0 15 0 a7.5 7.5 0 1 0 -15 0zM358.78 249.69 a7.5 7.5 0 1 0 15 0 a7.5 7.5 0 1 0 -15 0zM358.78 324.69 a7.5 7.5 0 1 0 15 0 a7.5 7.5 0 1 0 -15 0zM293.82 362.19 a7.5 7.5 0 1 0 15 0 a7.5 7.5 0 1 0 -15 0zM228.87 324.69 a7.5 7.5 0 1 0 15 0 a7.5 7.5 0 1 0 -15 0zM293.82 437.19 a7.5 7.5 0 1 0 15 0 a7.5 7.5 0 1 0 -15 0zM358.78 474.69 a7.5 7.5 0 1 0 15 0 a7.5 7.5 0 1 0 -15 0zM358.78 549.69 a7.5 7.5 0 1 0 15 0 a7.5 7.5 0 1 0 -15 0zM293.82 587.19 a7.5 7.5 0 1 0 15 0 a7.5 7.5 0 1 0 -15 0zM488.69 99.69 a7.5 7.5 0 1 0 15 0 a7.5 7.5 0 1 0 -15 0zM553.64 137.19 a7.5 7.5 0 1 0 15 0 a7.5 7.5 0 1 0 -15 0zM553.64 212.19 a7.5 7.5 0 1 0 15 0 a7.5 7.5 0 1 0 -15 0zM488.69 249.69 a7.5 7.5 0 1 0 15 0 a7.5 7.5 0 1 0 -15 0zM423.73 212.19 a7.5 7.5 0 1 0 15 0 a7.5 7.5 0 1 0 -15 0zM423.73 137.19 a7.5 7.5 0 1 0 15 0 a7.5 7.5 0 1 0 -15 0zM423.73 437.19 a7.5 7.5 0 1 0 15 0 a7.5 7.5 0 1 0 -15 0zM488.69 474.69 a7.5 7.5 0 1 0 15 0 a7.5 7.5 0 1 0 -15 0zM488.69 549.69 a7.5 7.5 0 1 0 15 0 a7.5 7.5 0 1 0 -15 0zM423.73 587.19 a7.5 7.5 0 1 0 15 0 a7.5 7.5 0 1 0 -15 0zM618.59 99.69 a7.5 7.5 0 1 0 15 0 a7.5 7.5 0 1 0 -15 0zM683.55 137.19 a7.5 7.5 0 1 0 15 0 a7.5 7.5 0 1 0 -15 0zM683.55 212.19 a7.5 7.5 0 1 0 15 0 a7.5 7.5 0 1 0 -15 0zM618.59 249.69 a7.5 7.5 0 1 0 15 0 a7.5 7.5 0 1 0 -15 0zM618.59 324.69 a7.5 7.5 0 1 0 15 0 a7.5 7.5 0 1 0 -15 0zM553.64 362.19 a7.5 7.5 0 1 0 15 0 a7.5 7.5 0 1 0 -15 0zM488.69 324.69 a7.5 7.5 0 1 0 15 0 a7.5 7.5 0 1 0 -15 0zM553.64 437.19 a7.5 7.5 0 1 0 15 0 a7.5 7.5 0 1 0 -15 0zM618.59 474.69 a7.5 7.5 0 1 0 15 0 a7.5 7.5 0 1 0 -15 0zM618.59 549.69 a7.5 7.5 0 1 0 15 0 a7.5 7.5 0 1 0 -15 0zM553.64 587.19 a7.5 7.5 0 1 0 15 0 a7.5 7.5 0 1 0 -15 0zM683.55 437.19 a7.5 7.5 0 1 0 15 0 a7.5 7.5 0 1 0 -15 0zM748.5 474.69 a7.5 7.5 0 1 0 15 0 a7.5 7.5 0 1 0 -15 0zM748.5 549.69 a7.5 7.5 0 1 0 15 0 a7.5 7.5 0 1 0 -15 0zM683.55 587.19 a7.5 7.5 0 1 0 15 0 a7.5 7.5 0 1 0 -15 0zM813.46 587.19 a7.5 7.5 0 1 0 15 0 a7.5 7.5 0 1 0 -15 0zM813.46 662.19 a7.5 7.5 0 1 0 15 0 a7.5 7.5 0 1 0 -15 0zM748.5 699.69 a7.5 7.5 0 1 0 15 0 a7.5 7.5 0 1 0 -15 0zM683.55 662.19 a7.5 7.5 0 1 0 15 0 a7.5 7.5 0 1 0 -15 0zM878.41 99.69 a7.5 7.5 0 1 0 15 0 a7.5 7.5 0 1 0 -15 0zM943.36 137.19 a7.5 7.5 0 1 0 15 0 a7.5 7.5 0 1 0 -15 0zM943.36 212.19 a7.5 7.5 0 1 0 15 0 a7.5 7.5 0 1 0 -15 0zM878.41 249.69 a7.5 7.5 0 1 0 15 0 a7.5 7.5 0 1 0 -15 0zM813.45 212.19 a7.5 7.5 0 1 0 15 0 a7.5 7.5 0 1 0 -15 0zM813.45 137.19 a7.5 7.5 0 1 0 15 0 a7.5 7.5 0 1 0 -15 0zM878.41 324.69 a7.5 7.5 0 1 0 15 0 a7.5 7.5 0 1 0 -15 0zM943.36 362.19 a7.5 7.5 0 1 0 15 0 a7.5 7.5 0 1 0 -15 0zM943.36 437.19 a7.5 7.5 0 1 0 15 0 a7.5 7.5 0 1 0 -15 0zM878.41 474.69 a7.5 7.5 0 1 0 15 0 a7.5 7.5 0 1 0 -15 0zM813.45 437.19 a7.5 7.5 0 1 0 15 0 a7.5 7.5 0 1 0 -15 0zM813.45 362.19 a7.5 7.5 0 1 0 15 0 a7.5 7.5 0 1 0 -15 0zM878.41 549.69 a7.5 7.5 0 1 0 15 0 a7.5 7.5 0 1 0 -15 0zM813.45 587.19 a7.5 7.5 0 1 0 15 0 a7.5 7.5 0 1 0 -15 0zM1008.32 99.69 a7.5 7.5 0 1 0 15 0 a7.5 7.5 0 1 0 -15 0zM1073.27 137.19 a7.5 7.5 0 1 0 15 0 a7.5 7.5 0 1 0 -15 0zM1073.27 212.19 a7.5 7.5 0 1 0 15 0 a7.5 7.5 0 1 0 -15 0zM1008.32 249.69 a7.5 7.5 0 1 0 15 0 a7.5 7.5 0 1 0 -15 0zM1008.32 324.69 a7.5 7.5 0 1 0 15 0 a7.5 7.5 0 1 0 -15 0zM1073.27 362.19 a7.5 7.5 0 1 0 15 0 a7.5 7.5 0 1 0 -15 0zM1073.27 437.19 a7.5 7.5 0 1 0 15 0 a7.5 7.5 0 1 0 -15 0zM1008.32 474.69 a7.5 7.5 0 1 0 15 0 a7.5 7.5 0 1 0 -15 0zM1073.27 -12.81 a7.5 7.5 0 1 0 15 0 a7.5 7.5 0 1 0 -15 0zM1138.22 24.69 a7.5 7.5 0 1 0 15 0 a7.5 7.5 0 1 0 -15 0zM1138.22 99.69 a7.5 7.5 0 1 0 15 0 a7.5 7.5 0 1 0 -15 0zM1008.32 24.69 a7.5 7.5 0 1 0 15 0 a7.5 7.5 0 1 0 -15 0zM1138.22 549.69 a7.5 7.5 0 1 0 15 0 a7.5 7.5 0 1 0 -15 0zM1203.18 587.19 a7.5 7.5 0 1 0 15 0 a7.5 7.5 0 1 0 -15 0zM1203.18 662.19 a7.5 7.5 0 1 0 15 0 a7.5 7.5 0 1 0 -15 0zM1138.22 699.69 a7.5 7.5 0 1 0 15 0 a7.5 7.5 0 1 0 -15 0zM1073.27 662.19 a7.5 7.5 0 1 0 15 0 a7.5 7.5 0 1 0 -15 0zM1073.27 587.19 a7.5 7.5 0 1 0 15 0 a7.5 7.5 0 1 0 -15 0zM1203.18 212.19 a7.5 7.5 0 1 0 15 0 a7.5 7.5 0 1 0 -15 0zM1268.13 249.69 a7.5 7.5 0 1 0 15 0 a7.5 7.5 0 1 0 -15 0zM1268.13 324.69 a7.5 7.5 0 1 0 15 0 a7.5 7.5 0 1 0 -15 0zM1203.18 362.19 a7.5 7.5 0 1 0 15 0 a7.5 7.5 0 1 0 -15 0zM1138.22 324.69 a7.5 7.5 0 1 0 15 0 a7.5 7.5 0 1 0 -15 0zM1138.22 249.69 a7.5 7.5 0 1 0 15 0 a7.5 7.5 0 1 0 -15 0zM1333.09 -12.81 a7.5 7.5 0 1 0 15 0 a7.5 7.5 0 1 0 -15 0zM1398.04 24.69 a7.5 7.5 0 1 0 15 0 a7.5 7.5 0 1 0 -15 0zM1398.04 99.69 a7.5 7.5 0 1 0 15 0 a7.5 7.5 0 1 0 -15 0zM1333.09 137.19 a7.5 7.5 0 1 0 15 0 a7.5 7.5 0 1 0 -15 0zM1268.13 99.69 a7.5 7.5 0 1 0 15 0 a7.5 7.5 0 1 0 -15 0zM1268.13 24.69 a7.5 7.5 0 1 0 15 0 a7.5 7.5 0 1 0 -15 0zM1398.04 549.69 a7.5 7.5 0 1 0 15 0 a7.5 7.5 0 1 0 -15 0zM1462.99 587.19 a7.5 7.5 0 1 0 15 0 a7.5 7.5 0 1 0 -15 0zM1462.99 662.19 a7.5 7.5 0 1 0 15 0 a7.5 7.5 0 1 0 -15 0zM1398.04 699.69 a7.5 7.5 0 1 0 15 0 a7.5 7.5 0 1 0 -15 0zM1333.09 662.19 a7.5 7.5 0 1 0 15 0 a7.5 7.5 0 1 0 -15 0zM1333.09 587.19 a7.5 7.5 0 1 0 15 0 a7.5 7.5 0 1 0 -15 0zM1527.95 324.69 a7.5 7.5 0 1 0 15 0 a7.5 7.5 0 1 0 -15 0zM1592.9 362.19 a7.5 7.5 0 1 0 15 0 a7.5 7.5 0 1 0 -15 0zM1592.9 437.19 a7.5 7.5 0 1 0 15 0 a7.5 7.5 0 1 0 -15 0zM1527.95 474.69 a7.5 7.5 0 1 0 15 0 a7.5 7.5 0 1 0 -15 0zM1462.99 437.19 a7.5 7.5 0 1 0 15 0 a7.5 7.5 0 1 0 -15 0zM1462.99 362.19 a7.5 7.5 0 1 0 15 0 a7.5 7.5 0 1 0 -15 0z" fill="rgba(246, 150, 83, 0.47)"></path><path d="M222.23 132.05L265.53 157.05L265.53 207.05L222.23 232.05L178.93 207.05L178.93 157.05zM265.53 507.05L308.83 532.05L308.83 582.05L265.53 607.05L222.23 582.05L222.23 532.05zM308.83 132.05L352.14 157.05L352.14 207.05L308.83 232.05L265.53 207.05L265.53 157.05zM482.05 282.05L525.35 307.05L525.35 357.05L482.05 382.05L438.74 357.05L438.74 307.05zM698.56 207.05L741.86 232.05L741.86 282.05L698.56 307.05L655.25 282.05L655.25 232.05zM871.77 207.05L915.07 232.05L915.07 282.05L871.77 307.05L828.47 282.05L828.47 232.05zM1044.98 207.05L1088.28 232.05L1088.28 282.05L1044.98 307.05L1001.68 282.05L1001.68 232.05zM1174.88 132.05L1218.19 157.05L1218.19 207.05L1174.88 232.05L1131.58 207.05L1131.58 157.05zM1174.88 432.05L1218.19 457.05L1218.19 507.05L1174.88 532.05L1131.58 507.05L1131.58 457.05zM1348.1 132.05L1391.4 157.05L1391.4 207.05L1348.1 232.05L1304.79 207.05L1304.79 157.05zM1434.7 282.05L1478 307.05L1478 357.05L1434.7 382.05L1391.4 357.05L1391.4 307.05z" stroke="rgba(247, 101, 0, 1)" stroke-width="2"></path></g><defs><mask id="SvgjsMask1019"><rect width="1440" height="560" fill="#ffffff"></rect></mask></defs></svg>